<?xml version="1.0" encoding="utf-8"?>
<!-- Generator: Adobe Illustrator 28.1.0, SVG Export Plug-In . SVG Version: 6.00 Build 0)  -->
<svg version="1.1" id="Layer_2_00000150817737539583751210000002126795777002456215_"
	 xmlns="http://www.w3.org/2000/svg" xmlns:xlink="http://www.w3.org/1999/xlink" x="0px" y="0px" viewBox="0 0 1128 1910"
	 style="enable-background:new 0 0 1128 1910;" xml:space="preserve">
<style type="text/css">
	.st0{fill:none;stroke:#F9C842;stroke-width:3;stroke-miterlimit:10;}
	.st1{fill:none;stroke:#F9C842;stroke-width:0.75;stroke-miterlimit:10;}
</style>
<path class="st0" d="M686.9,714.3c0,0,25.6,54.3-12,63.1c0,6.7,0.3,12.4,0.4,15.1c0.1,1.1,0.1,2.3,0,3.4l-4.6,94.2
	c0,0-58-22.9-126-37.3c-85.5-18.1-185-28.4-185-28.4s12-71.5,38.1-120c9.9-5.2,22.4-7.8,28.2-8.9c5.2-7.8,33.9-52.7,51.1-66.8
	c11.3-5.4,47.5-18.9,80.7-30.4l79.4,74.7l9.9-33.4l-9.6-7.1l-23.9-17.7L581,590.5c18.2-6,33-10.4,38.1-10.9c1.1,0.4,2.2,0.9,3.3,1.4
	v0c16.1,7,35.3,21.6,35.3,21.6v26.6c0,0,25,13.6,36,33.9l18.3,1.6v6.8c0,0-14.6,16.7-21.4,36C677.5,708.5,686.9,714.3,686.9,714.3z"
	/>
<polygon class="st0" points="647.3,639.7 637.3,673 557.9,598.3 488.1,532.7 488.1,526.4 494.4,526.4 581,590.5 613.8,614.9 
	637.7,632.6 "/>
<polygon class="st0" points="650.9,626.1 660.8,648 694.2,673 681.7,711.5 637.3,673 647.3,639.7 637.7,632.6 "/>
<line class="st0" x1="660.8" y1="648" x2="640.7" y2="676"/>
<line class="st0" x1="694.2" y1="673" x2="694.2" y2="663.1"/>
<path class="st0" d="M558,711.5c0,0,78.2,5,107.7,19.5c29.5,14.5,7,25,7,25l-60.5,4.7L558,734.9L558,711.5L558,711.5z"/>
<ellipse class="st0" cx="556" cy="662.9" rx="39.7" ry="10.2"/>
<ellipse class="st0" cx="538.1" cy="662.7" rx="21.5" ry="8.2"/>
<path class="st0" d="M516.3,832.2c0,0,12-57.9-10.4-137.7c-17.7-5.2-25-3.7-25-3.7l-61.6,10.4l-2.6,69.9l25-2.6L437,828
	C437,828,485,817,516.3,832.2z"/>
<path class="st0" d="M592,755l-5.9,83.1c-0.1,0.9,0.3,1.7,1.1,2.2l22.8,16.3c1,0.7,2.5,0.4,3.1-0.7c4.5-7.7,20.9-34.8,33.5-45.3
	c0.5-0.4,1.1-0.6,1.8-0.6h12.3c1.2,0,2.1,0.9,2.1,2.1v30c0,0,16.4-41,10.2-86.1l-60.5,4.7L592,755z"/>
<path class="st0" d="M650.8,773.2h14c2.7,0,5,2.2,5,5v5.2"/>
<path class="st0" d="M647.3,788.1h15.7c2.9,0,5.2,2.3,5.2,5.2v6.5"/>
<polygon class="st0" points="622,608.3 619.8,619.3 632.9,627.7 634.2,614.9 "/>
<line class="st0" x1="613.8" y1="614.9" x2="622.4" y2="581"/>
<polyline class="st0" points="622,608.3 625.9,591.1 652.2,606 650.9,626.1 657.7,629.2 "/>
<path class="st0" d="M634.2,614.9"/>
<line class="st1" x1="652.2" y1="606" x2="634.2" y2="614.9"/>
<path class="st0" d="M581,590.5"/>
<path class="st0" d="M557.9,598.3"/>
<path class="st0" d="M557.9,598.3"/>
</svg>
